<svg width="854" height="333" viewBox="0 0 854 333" fill="none" xmlns="http://www.w3.org/2000/svg">
<rect x="207.5" y="285" width="646" height="48" fill="#C7D3C5"/>
<path d="M38.3 36.24C45.18 36.24 50.62 36.88 54.62 38.16C58.7 39.36 61.62 41.52 63.38 44.64C65.22 47.76 66.14 52.16 66.14 57.84C66.14 63.76 65.02 68.28 62.78 71.4C60.62 74.52 57.06 76.32 52.1 76.8V77.28C58.26 77.84 62.58 80 65.06 83.76C67.54 87.52 68.78 92.72 68.78 99.36C68.78 105.04 67.86 109.44 66.02 112.56C64.26 115.68 61.42 117.88 57.5 119.16C53.58 120.36 48.42 120.96 42.02 120.96C37.14 120.96 32.94 120.92 29.42 120.84C25.98 120.84 22.78 120.76 19.82 120.6C16.86 120.44 13.78 120.24 10.58 120L12.26 110.76C14.02 110.84 17.42 110.92 22.46 111C27.5 111.08 33.38 111.12 40.1 111.12C44.26 111.12 47.54 110.76 49.94 110.04C52.34 109.32 54.06 107.96 55.1 105.96C56.14 103.96 56.66 101.04 56.66 97.2C56.66 93.04 56.1 89.88 54.98 87.72C53.94 85.48 52.18 83.92 49.7 83.04C47.22 82.08 43.78 81.56 39.38 81.48H12.14V72.72H39.26C43.1 72.64 46.14 72.24 48.38 71.52C50.62 70.8 52.22 69.48 53.18 67.56C54.14 65.56 54.62 62.8 54.62 59.28C54.62 55.68 54.1 52.92 53.06 51C52.02 49.08 50.26 47.8 47.78 47.16C45.3 46.44 41.94 46.08 37.7 46.08C33.7 46.08 30.1 46.08 26.9 46.08C23.7 46.08 20.9 46.12 18.5 46.2C16.1 46.2 14.02 46.28 12.26 46.44L10.58 37.2C13.46 36.88 16.18 36.68 18.74 36.6C21.38 36.44 24.22 36.36 27.26 36.36C30.38 36.28 34.06 36.24 38.3 36.24ZM22.34 37.2V120H10.58V37.2H22.34ZM109.103 60C118.143 60 124.663 61.64 128.663 64.92C132.743 68.12 134.783 72.88 134.783 79.2C134.863 84.48 133.703 88.56 131.303 91.44C128.983 94.32 125.183 95.76 119.903 95.76H86.0628V87.48H116.903C119.543 87.48 121.263 86.64 122.063 84.96C122.863 83.28 123.263 81.36 123.263 79.2C123.183 75.6 122.103 73.04 120.023 71.52C118.023 70 114.543 69.24 109.583 69.24C105.503 69.24 102.303 69.84 99.9828 71.04C97.6628 72.24 96.0228 74.32 95.0628 77.28C94.1828 80.24 93.7428 84.4 93.7428 89.76C93.7428 95.76 94.3028 100.36 95.4228 103.56C96.6228 106.68 98.5028 108.84 101.063 110.04C103.703 111.24 107.183 111.84 111.503 111.84C114.543 111.84 117.943 111.72 121.703 111.48C125.543 111.16 129.023 110.8 132.143 110.4L133.343 117.96C131.423 118.76 129.103 119.44 126.383 120C123.663 120.48 120.863 120.84 117.983 121.08C115.103 121.32 112.463 121.44 110.063 121.44C103.183 121.44 97.6628 120.4 93.5028 118.32C89.3428 116.24 86.3028 112.96 84.3828 108.48C82.4628 103.92 81.5028 97.96 81.5028 90.6C81.5028 82.92 82.4628 76.84 84.3828 72.36C86.3028 67.88 89.3028 64.72 93.3828 62.88C97.4628 60.96 102.703 60 109.103 60ZM204.223 60C208.703 60 212.463 60.6 215.503 61.8C218.623 62.92 220.943 64.88 222.463 67.68C224.063 70.48 224.863 74.32 224.863 79.2V120H215.743L213.943 107.28L213.223 105.84V79.2C213.223 75.76 212.423 73.28 210.823 71.76C209.223 70.24 206.183 69.48 201.703 69.48C198.663 69.48 194.823 69.64 190.183 69.96C185.623 70.28 181.103 70.6 176.623 70.92L175.543 62.64C178.263 62.16 181.263 61.72 184.543 61.32C187.903 60.92 191.303 60.6 194.743 60.36C198.183 60.12 201.343 60 204.223 60ZM219.583 83.88L219.463 92.04L191.863 92.16C189.143 92.24 187.223 92.96 186.103 94.32C185.063 95.6 184.543 97.4 184.543 99.72V103.32C184.543 106.2 185.223 108.32 186.583 109.68C188.023 110.96 190.263 111.6 193.303 111.6C195.543 111.6 198.023 111.2 200.743 110.4C203.543 109.52 206.343 108.24 209.143 106.56C211.943 104.8 214.463 102.6 216.703 99.96V107.52C215.903 108.64 214.703 110 213.103 111.6C211.503 113.12 209.543 114.6 207.223 116.04C204.983 117.48 202.463 118.68 199.663 119.64C196.943 120.6 193.943 121.08 190.663 121.08C187.143 121.08 184.023 120.48 181.303 119.28C178.663 118 176.583 116.16 175.063 113.76C173.543 111.28 172.783 108.28 172.783 104.76V98.4C172.783 93.84 174.223 90.28 177.103 87.72C180.063 85.16 184.143 83.88 189.343 83.88H219.583ZM329.023 37.2L304.303 116.64C303.983 117.52 303.423 118.32 302.623 119.04C301.823 119.68 300.903 120 299.863 120H287.983C286.863 120 285.903 119.68 285.103 119.04C284.303 118.32 283.743 117.52 283.423 116.64L258.823 37.2H271.303L290.023 101.76C290.423 103.28 290.823 104.8 291.223 106.32C291.623 107.76 291.983 109.24 292.303 110.76H295.543C295.863 109.24 296.223 107.72 296.623 106.2C297.023 104.68 297.463 103.16 297.943 101.64L316.543 37.2H329.023ZM360.601 60C367.481 60 372.961 61 377.041 63C381.201 65 384.161 68.28 385.921 72.84C387.761 77.32 388.681 83.28 388.681 90.72C388.681 98.24 387.761 104.28 385.921 108.84C384.161 113.32 381.201 116.56 377.041 118.56C372.961 120.56 367.481 121.56 360.601 121.56C353.801 121.56 348.321 120.56 344.161 118.56C340.081 116.56 337.121 113.32 335.281 108.84C333.441 104.28 332.521 98.24 332.521 90.72C332.521 83.28 333.441 77.32 335.281 72.84C337.121 68.28 340.081 65 344.161 63C348.321 61 353.801 60 360.601 60ZM360.601 69.36C356.601 69.36 353.441 70 351.121 71.28C348.801 72.56 347.161 74.76 346.201 77.88C345.241 80.92 344.761 85.2 344.761 90.72C344.761 96.24 345.241 100.56 346.201 103.68C347.161 106.8 348.801 109 351.121 110.28C353.441 111.48 356.601 112.08 360.601 112.08C364.601 112.08 367.761 111.48 370.081 110.28C372.481 109 374.161 106.8 375.121 103.68C376.081 100.56 376.561 96.24 376.561 90.72C376.561 85.2 376.081 80.92 375.121 77.88C374.161 74.76 372.481 72.56 370.081 71.28C367.761 70 364.601 69.36 360.601 69.36ZM415.833 61.44V120H404.433V61.44H415.833ZM412.833 36.36C415.153 36.36 416.313 37.52 416.313 39.84V46.68C416.313 49 415.153 50.16 412.833 50.16H407.433C405.113 50.16 403.953 49 403.953 46.68V39.84C403.953 37.52 405.113 36.36 407.433 36.36H412.833ZM459.745 60C461.585 60 463.585 60.08 465.745 60.24C467.985 60.4 470.265 60.68 472.585 61.08C474.985 61.48 477.185 62.08 479.185 62.88L477.745 70.32C474.945 70.08 472.065 69.92 469.105 69.84C466.225 69.68 463.745 69.6 461.665 69.6C457.185 69.6 453.625 70.24 450.985 71.52C448.425 72.72 446.585 74.84 445.465 77.88C444.345 80.92 443.785 85.16 443.785 90.6C443.785 96.04 444.345 100.32 445.465 103.44C446.585 106.56 448.425 108.72 450.985 109.92C453.625 111.12 457.185 111.72 461.665 111.72C462.865 111.72 464.425 111.68 466.345 111.6C468.265 111.52 470.345 111.4 472.585 111.24C474.825 111.08 476.985 110.84 479.065 110.52L480.145 118.2C477.185 119.32 473.905 120.12 470.305 120.6C466.705 121.16 463.145 121.44 459.625 121.44C452.745 121.44 447.225 120.44 443.065 118.44C438.985 116.44 436.025 113.2 434.185 108.72C432.345 104.24 431.425 98.2 431.425 90.6C431.425 83.08 432.345 77.08 434.185 72.6C436.105 68.12 439.105 64.92 443.185 63C447.345 61 452.865 60 459.745 60ZM517.267 60C526.307 60 532.827 61.64 536.827 64.92C540.907 68.12 542.947 72.88 542.947 79.2C543.027 84.48 541.867 88.56 539.467 91.44C537.147 94.32 533.347 95.76 528.067 95.76H494.227V87.48H525.067C527.707 87.48 529.427 86.64 530.227 84.96C531.027 83.28 531.427 81.36 531.427 79.2C531.347 75.6 530.267 73.04 528.187 71.52C526.187 70 522.707 69.24 517.747 69.24C513.667 69.24 510.467 69.84 508.147 71.04C505.827 72.24 504.187 74.32 503.227 77.28C502.347 80.24 501.907 84.4 501.907 89.76C501.907 95.76 502.467 100.36 503.587 103.56C504.787 106.68 506.667 108.84 509.227 110.04C511.867 111.24 515.347 111.84 519.667 111.84C522.707 111.84 526.107 111.72 529.867 111.48C533.707 111.16 537.187 110.8 540.307 110.4L541.507 117.96C539.587 118.76 537.267 119.44 534.547 120C531.827 120.48 529.027 120.84 526.147 121.08C523.267 121.32 520.627 121.44 518.227 121.44C511.347 121.44 505.827 120.4 501.667 118.32C497.507 116.24 494.467 112.96 492.547 108.48C490.627 103.92 489.667 97.96 489.667 90.6C489.667 82.92 490.627 76.84 492.547 72.36C494.467 67.88 497.467 64.72 501.547 62.88C505.627 60.96 510.867 60 517.267 60Z" fill="black"/>
<path d="M250.38 226.2V304.32C250.38 307.44 248.9 309 245.94 309H235.62C234.26 309 233.18 308.68 232.38 308.04C231.66 307.4 231.02 306.48 230.46 305.28L203.34 249.36C202.62 247.76 201.78 245.96 200.82 243.96C199.86 241.88 199.14 239.96 198.66 238.2H196.86C197.02 240.04 197.14 241.92 197.22 243.84C197.3 245.68 197.34 247.56 197.34 249.48V309H185.58V230.88C185.58 227.76 187.1 226.2 190.14 226.2H200.1C201.46 226.2 202.54 226.52 203.34 227.16C204.14 227.8 204.82 228.72 205.38 229.92L231.54 284.4C232.42 286.08 233.34 288 234.3 290.16C235.34 292.32 236.34 294.44 237.3 296.52H239.22C239.06 294.36 238.94 292.24 238.86 290.16C238.78 288 238.74 285.88 238.74 283.8V226.2H250.38ZM294.781 249C301.661 249 307.141 250 311.221 252C315.381 254 318.341 257.28 320.101 261.84C321.941 266.32 322.861 272.28 322.861 279.72C322.861 287.24 321.941 293.28 320.101 297.84C318.341 302.32 315.381 305.56 311.221 307.56C307.141 309.56 301.661 310.56 294.781 310.56C287.981 310.56 282.501 309.56 278.341 307.56C274.261 305.56 271.301 302.32 269.461 297.84C267.621 293.28 266.701 287.24 266.701 279.72C266.701 272.28 267.621 266.32 269.461 261.84C271.301 257.28 274.261 254 278.341 252C282.501 250 287.981 249 294.781 249ZM294.781 258.36C290.781 258.36 287.621 259 285.301 260.28C282.981 261.56 281.341 263.76 280.381 266.88C279.421 269.92 278.941 274.2 278.941 279.72C278.941 285.24 279.421 289.56 280.381 292.68C281.341 295.8 282.981 298 285.301 299.28C287.621 300.48 290.781 301.08 294.781 301.08C298.781 301.08 301.941 300.48 304.261 299.28C306.661 298 308.341 295.8 309.301 292.68C310.261 289.56 310.741 285.24 310.741 279.72C310.741 274.2 310.261 269.92 309.301 266.88C308.341 263.76 306.661 261.56 304.261 260.28C301.941 259 298.781 258.36 294.781 258.36ZM354.216 233.28V292.32C354.216 295.04 354.776 297 355.896 298.2C357.096 299.32 359.096 299.88 361.896 299.88H370.536L371.856 308.4C370.496 308.8 368.936 309.12 367.176 309.36C365.496 309.6 363.776 309.76 362.016 309.84C360.336 310 358.976 310.08 357.936 310.08C352.976 310.08 349.176 308.72 346.536 306C343.896 303.28 342.576 299.36 342.576 294.24V233.28H354.216ZM372.456 250.44V259.08H332.016V251.04L343.536 250.44H372.456ZM442.777 226.2C443.817 226.2 444.737 226.52 445.537 227.16C446.337 227.72 446.897 228.48 447.217 229.44L473.377 309H460.897L440.257 242.4C439.937 241.2 439.617 240 439.297 238.8C438.977 237.6 438.657 236.48 438.337 235.44H434.977C434.657 236.48 434.337 237.6 434.017 238.8C433.697 240 433.337 241.2 432.937 242.4L412.297 309H399.937L426.097 229.44C426.417 228.48 426.977 227.72 427.777 227.16C428.577 226.52 429.497 226.2 430.537 226.2H442.777ZM457.657 273.84V283.8H415.417V273.84H457.657ZM519.928 249C530.568 249 535.888 254.36 535.888 265.08V309H524.248V268.44C524.248 264.76 523.648 262.24 522.448 260.88C521.248 259.44 519.208 258.72 516.328 258.72C512.888 258.72 509.448 259.56 506.008 261.24C502.568 262.84 498.448 265.08 493.648 267.96L493.168 260.16C497.648 256.56 502.128 253.8 506.608 251.88C511.088 249.96 515.528 249 519.928 249ZM492.928 250.44L494.008 261.72L494.848 263.4V309H483.328V250.44H492.928ZM596.805 226.08C600.805 226.08 604.885 226.08 609.045 226.08C613.205 226.08 617.285 226.16 621.285 226.32C625.365 226.4 629.245 226.56 632.925 226.8L632.445 236.04H599.445C597.045 236.04 595.285 236.64 594.165 237.84C593.045 239.04 592.485 240.96 592.485 243.6V291.6C592.485 294.24 593.045 296.2 594.165 297.48C595.285 298.68 597.045 299.28 599.445 299.28H632.445L632.925 308.4C629.245 308.64 625.365 308.8 621.285 308.88C617.285 308.96 613.205 309 609.045 309C604.885 309.08 600.805 309.12 596.805 309.12C591.845 309.12 587.885 307.8 584.925 305.16C582.045 302.44 580.565 298.84 580.485 294.36V240.84C580.565 236.28 582.045 232.68 584.925 230.04C587.885 227.4 591.845 226.08 596.805 226.08ZM582.645 260.76H627.765V270H582.645V260.76ZM673.182 249C675.022 249 677.022 249.08 679.182 249.24C681.422 249.4 683.702 249.68 686.022 250.08C688.422 250.48 690.622 251.08 692.622 251.88L691.182 259.32C688.382 259.08 685.502 258.92 682.542 258.84C679.662 258.68 677.182 258.6 675.102 258.6C670.622 258.6 667.062 259.24 664.422 260.52C661.862 261.72 660.022 263.84 658.902 266.88C657.782 269.92 657.222 274.16 657.222 279.6C657.222 285.04 657.782 289.32 658.902 292.44C660.022 295.56 661.862 297.72 664.422 298.92C667.062 300.12 670.622 300.72 675.102 300.72C676.302 300.72 677.862 300.68 679.782 300.6C681.702 300.52 683.782 300.4 686.022 300.24C688.262 300.08 690.422 299.84 692.502 299.52L693.582 307.2C690.622 308.32 687.342 309.12 683.742 309.6C680.142 310.16 676.582 310.44 673.062 310.44C666.182 310.44 660.662 309.44 656.502 307.44C652.422 305.44 649.462 302.2 647.622 297.72C645.782 293.24 644.862 287.2 644.862 279.6C644.862 272.08 645.782 266.08 647.622 261.6C649.542 257.12 652.542 253.92 656.622 252C660.782 250 666.302 249 673.182 249ZM743.522 249C754.162 249 759.482 254.36 759.482 265.08V309H747.722V268.44C747.722 264.76 747.122 262.24 745.922 260.88C744.802 259.44 742.802 258.72 739.922 258.72C736.482 258.72 733.042 259.52 729.602 261.12C726.162 262.64 722.042 264.92 717.242 267.96L716.642 260.28C721.122 256.76 725.602 254 730.082 252C734.642 250 739.122 249 743.522 249ZM718.442 225L718.562 247.68C718.562 250.4 718.442 252.96 718.202 255.36C718.042 257.76 717.722 259.88 717.242 261.72L718.442 263.4V309H706.922V225H718.442ZM802.437 249C809.317 249 814.797 250 818.877 252C823.037 254 825.997 257.28 827.757 261.84C829.597 266.32 830.517 272.28 830.517 279.72C830.517 287.24 829.597 293.28 827.757 297.84C825.997 302.32 823.037 305.56 818.877 307.56C814.797 309.56 809.317 310.56 802.437 310.56C795.637 310.56 790.157 309.56 785.997 307.56C781.917 305.56 778.957 302.32 777.117 297.84C775.277 293.28 774.357 287.24 774.357 279.72C774.357 272.28 775.277 266.32 777.117 261.84C778.957 257.28 781.917 254 785.997 252C790.157 250 795.637 249 802.437 249ZM802.437 258.36C798.437 258.36 795.277 259 792.957 260.28C790.637 261.56 788.997 263.76 788.037 266.88C787.077 269.92 786.597 274.2 786.597 279.72C786.597 285.24 787.077 289.56 788.037 292.68C788.997 295.8 790.637 298 792.957 299.28C795.277 300.48 798.437 301.08 802.437 301.08C806.437 301.08 809.597 300.48 811.917 299.28C814.317 298 815.997 295.8 816.957 292.68C817.917 289.56 818.397 285.24 818.397 279.72C818.397 274.2 817.917 269.92 816.957 266.88C815.997 263.76 814.317 261.56 811.917 260.28C809.597 259 806.437 258.36 802.437 258.36Z" fill="black"/>
</svg>
